<svg width="28" height="24" viewBox="0 0 28 24" fill="none" xmlns="http://www.w3.org/2000/svg">
<path d="M14.2297 10.0295C14.1532 10.0295 14.0775 10.0273 14.0002 10.0243C13.9012 10.0318 13.7857 10.0363 13.6695 10.0363C12.4972 10.0363 11.43 9.58926 10.6282 8.85576L10.632 8.85876C10.0935 8.30901 9.76124 7.55526 9.76124 6.72351C9.76124 6.61326 9.76724 6.50451 9.77849 6.39726L9.77699 6.41076C10.0065 4.24326 11.796 2.56026 13.9905 2.49951H13.9965H14.004C16.2225 2.56776 18.021 4.27851 18.228 6.45276L18.2295 6.47076C18.237 6.55026 18.2415 6.64326 18.2415 6.73626C18.2415 7.56426 17.9085 8.31426 17.3692 8.86101C16.584 9.58701 15.5302 10.0325 14.3722 10.0325C14.322 10.0325 14.2717 10.0318 14.2215 10.0303H14.229L14.2297 10.0295ZM14.004 4.49976H13.9965C12.8347 4.56576 11.901 5.45676 11.7675 6.59226L11.7667 6.60351C11.7615 6.64176 11.7585 6.68601 11.7585 6.73101C11.7585 7.01451 11.8725 7.27101 12.0562 7.45851C12.4972 7.82001 13.0672 8.03901 13.689 8.03901C13.7805 8.03901 13.8712 8.03451 13.9605 8.02476L13.9492 8.02551C13.9642 8.02476 13.9822 8.02401 14.0002 8.02401C14.0182 8.02401 14.0355 8.02476 14.0535 8.02551H14.0512C14.1277 8.03376 14.217 8.03826 14.307 8.03826C14.9295 8.03826 15.5017 7.81926 15.9495 7.45476L15.945 7.45851C16.1295 7.27626 16.2442 7.02276 16.2442 6.74301C16.2442 6.71451 16.2427 6.68676 16.2405 6.65901V6.66276C16.1265 5.49201 15.1837 4.57476 14.0122 4.50126H14.0055L14.004 4.49976ZM2.00024 17.774V20.4995C2.00024 21.0515 2.44799 21.4993 2.99999 21.4993C3.55199 21.4993 3.99974 21.0515 3.99974 20.4995V17.774C4.00049 15.5105 4.74599 13.7638 5.46674 13.3843C5.78699 13.2133 6.00074 12.881 6.00074 12.4993C6.00074 11.9465 5.55299 11.4988 5.00024 11.4988C4.82924 11.4988 4.66874 11.5415 4.52774 11.6173L4.53299 11.6143C2.99474 12.4265 2.00099 14.8445 1.99949 17.774H2.00024ZM6.59174 7.88376C6.59024 7.85601 6.58949 7.82376 6.58949 7.79076C6.58949 6.92301 7.17824 6.19251 7.97774 5.97726L7.99049 5.97426C8.42774 5.86101 8.74574 5.47026 8.74574 5.00451C8.74574 4.45176 8.29799 4.00401 7.74524 4.00401C7.65824 4.00401 7.57349 4.01526 7.49324 4.03626L7.49999 4.03476C5.82074 4.46601 4.60049 5.96601 4.60049 7.75176C4.60049 7.98051 4.62074 8.20476 4.65899 8.42226L4.65524 8.39901C4.66574 8.44176 4.67624 8.47626 4.68899 8.51001L4.68674 8.50326C5.12474 9.45426 5.87699 10.1983 6.80624 10.6168L6.83324 10.6273C6.96374 10.7038 7.09574 10.7795 7.22474 10.8575C7.37324 10.9498 7.55324 11.0038 7.74524 11.0038C8.10524 11.0038 8.42024 10.814 8.59574 10.5283L8.59799 10.5238C8.69024 10.3753 8.74424 10.1953 8.74424 10.0033C8.74424 9.64401 8.55449 9.32826 8.26949 9.15276L8.26499 9.15051C8.12324 9.06351 7.97774 8.97951 7.83374 8.89551C7.32074 8.67726 6.89924 8.32926 6.59624 7.89276L6.59024 7.88301L6.59174 7.88376ZM5.99999 18.833V21.5C5.99999 22.052 6.44774 22.4998 6.99974 22.4998C7.55174 22.4998 7.99949 22.052 7.99949 21.5V18.833C7.99949 16.5245 9.16724 14.5003 10.4992 14.5003H17.499C18.831 14.5003 19.9987 16.5245 19.9987 18.833V21.5C19.9987 22.052 20.4465 22.4998 20.9985 22.4998C21.5505 22.4998 21.9982 22.052 21.9982 21.5V18.833C21.9982 15.2825 20.022 12.5 17.4982 12.5H10.4985C7.97474 12.5 5.99849 15.2825 5.99849 18.833H5.99999Z" fill="url(#paint0_linear)"/>
<path d="M13.7703 10.0295C13.8468 10.0295 13.9225 10.0273 13.9998 10.0243C14.0988 10.0318 14.2143 10.0363 14.3305 10.0363C15.5028 10.0363 16.57 9.58926 17.3718 8.85576L17.368 8.85876C17.9065 8.30901 18.2388 7.55526 18.2388 6.72351C18.2388 6.61326 18.2328 6.50451 18.2215 6.39726L18.223 6.41076C17.9935 4.24326 16.204 2.56026 14.0095 2.49951H14.0035H13.996C11.7775 2.56776 9.97901 4.27851 9.77201 6.45276L9.77051 6.47076C9.76301 6.55026 9.75851 6.64326 9.75851 6.73626C9.75851 7.56426 10.0915 8.31426 10.6308 8.86101C11.416 9.58701 12.4698 10.0325 13.6278 10.0325C13.678 10.0325 13.7283 10.0318 13.7785 10.0303H13.771L13.7703 10.0295ZM13.996 4.49976H14.0035C15.1653 4.56576 16.099 5.45676 16.2325 6.59226L16.2333 6.60351C16.2385 6.64176 16.2415 6.68601 16.2415 6.73101C16.2415 7.01451 16.1275 7.27101 15.9438 7.45851C15.5028 7.82001 14.9328 8.03901 14.311 8.03901C14.2195 8.03901 14.1288 8.03451 14.0395 8.02476L14.0508 8.02551C14.0358 8.02476 14.0178 8.02401 13.9998 8.02401C13.9818 8.02401 13.9645 8.02476 13.9465 8.02551H13.9488C13.8723 8.03376 13.783 8.03826 13.693 8.03826C13.0705 8.03826 12.4983 7.81926 12.0505 7.45476L12.055 7.45851C11.8705 7.27626 11.7558 7.02276 11.7558 6.74301C11.7558 6.71451 11.7573 6.68676 11.7595 6.65901V6.66276C11.8735 5.49201 12.8163 4.57476 13.9878 4.50126H13.9945L13.996 4.49976ZM25.9998 17.774V20.4995C25.9998 21.0515 25.552 21.4993 25 21.4993C24.448 21.4993 24.0003 21.0515 24.0003 20.4995V17.774C23.9995 15.5105 23.254 13.7638 22.5333 13.3843C22.213 13.2133 21.9993 12.881 21.9993 12.4993C21.9993 11.9465 22.447 11.4988 22.9998 11.4988C23.1708 11.4988 23.3313 11.5415 23.4723 11.6173L23.467 11.6143C25.0053 12.4265 25.999 14.8445 26.0005 17.774H25.9998ZM21.4083 7.88376C21.4098 7.85601 21.4105 7.82376 21.4105 7.79076C21.4105 6.92301 20.8218 6.19251 20.0223 5.97726L20.0095 5.97426C19.5723 5.86101 19.2543 5.47026 19.2543 5.00451C19.2543 4.45176 19.702 4.00401 20.2548 4.00401C20.3418 4.00401 20.4265 4.01526 20.5068 4.03626L20.5 4.03476C22.1793 4.46601 23.3995 5.96601 23.3995 7.75176C23.3995 7.98051 23.3793 8.20476 23.341 8.42226L23.3448 8.39901C23.3343 8.44176 23.3238 8.47626 23.311 8.51001L23.3133 8.50326C22.8753 9.45426 22.123 10.1983 21.1938 10.6168L21.1668 10.6273C21.0363 10.7038 20.9043 10.7795 20.7753 10.8575C20.6268 10.9498 20.4468 11.0038 20.2548 11.0038C19.8948 11.0038 19.5798 10.814 19.4043 10.5283L19.402 10.5238C19.3098 10.3753 19.2558 10.1953 19.2558 10.0033C19.2558 9.64401 19.4455 9.32826 19.7305 9.15276L19.735 9.15051C19.8768 9.06351 20.0223 8.97951 20.1663 8.89551C20.6793 8.67726 21.1008 8.32926 21.4038 7.89276L21.4098 7.88301L21.4083 7.88376ZM22 18.833V21.5C22 22.052 21.5523 22.4998 21.0003 22.4998C20.4483 22.4998 20.0005 22.052 20.0005 21.5V18.833C20.0005 16.5245 18.8328 14.5003 17.5008 14.5003H10.501C9.16901 14.5003 8.00126 16.5245 8.00126 18.833V21.5C8.00126 22.052 7.55351 22.4998 7.00151 22.4998C6.44951 22.4998 6.00176 22.052 6.00176 21.5V18.833C6.00176 15.2825 7.97801 12.5 10.5018 12.5H17.5015C20.0253 12.5 22.0015 15.2825 22.0015 18.833H22Z" fill="url(#paint1_linear)"/>
<defs>
<linearGradient id="paint0_linear" x1="20.8131" y1="-19.4055" x2="-17.0351" y2="-15.5564" gradientUnits="userSpaceOnUse">
<stop stop-color="#2042B8"/>
<stop offset="0.933726" stop-color="#FF6600"/>
</linearGradient>
<linearGradient id="paint1_linear" x1="7.18687" y1="-19.4055" x2="45.0351" y2="-15.5564" gradientUnits="userSpaceOnUse">
<stop stop-color="#2042B8"/>
<stop offset="0.933726" stop-color="#FF6600"/>
</linearGradient>
</defs>
</svg>
