<svg width="28" height="24" viewBox="0 0 28 24" fill="none" xmlns="http://www.w3.org/2000/svg">
<path d="M14.2298 10.0298C14.1533 10.0298 14.0775 10.0275 14.0003 10.0245C13.9013 10.032 13.7858 10.0365 13.6695 10.0365C12.4973 10.0365 11.43 9.58951 10.6283 8.85601L10.632 8.85901C10.0935 8.30926 9.76129 7.55551 9.76129 6.72376C9.76129 6.61351 9.76729 6.50476 9.77854 6.39751L9.77704 6.41101C10.0065 4.24351 11.796 2.56051 13.9905 2.49976H13.9965H14.004C16.2225 2.56801 18.021 4.27876 18.228 6.45301L18.2295 6.47101C18.237 6.55051 18.2415 6.64351 18.2415 6.73651C18.2415 7.56451 17.9085 8.31451 17.3693 8.86126C16.584 9.58726 15.5303 10.0328 14.3723 10.0328C14.322 10.0328 14.2718 10.032 14.2215 10.0305H14.229L14.2298 10.0298ZM14.004 4.50001H13.9965C12.8348 4.56601 11.901 5.45701 11.7675 6.59251L11.7668 6.60376C11.7615 6.64201 11.7585 6.68626 11.7585 6.73126C11.7585 7.01476 11.8725 7.27126 12.0563 7.45876C12.4973 7.82026 13.0673 8.03926 13.689 8.03926C13.7805 8.03926 13.8713 8.03476 13.9605 8.02501L13.9493 8.02576C13.9643 8.02501 13.9823 8.02426 14.0003 8.02426C14.0183 8.02426 14.0355 8.02501 14.0535 8.02576H14.0513C14.1278 8.03401 14.217 8.03851 14.307 8.03851C14.9295 8.03851 15.5018 7.81951 15.9495 7.45501L15.945 7.45876C16.1295 7.27651 16.2443 7.02301 16.2443 6.74326C16.2443 6.71476 16.2428 6.68701 16.2405 6.65926V6.66301C16.1265 5.49226 15.1838 4.57501 14.0123 4.50151H14.0055L14.004 4.50001ZM2.00029 17.7743V20.4998C2.00029 21.0518 2.44804 21.4995 3.00004 21.4995C3.55204 21.4995 3.99979 21.0518 3.99979 20.4998V17.7743C4.00054 15.5108 4.74604 13.764 5.46679 13.3845C5.78704 13.2135 6.00079 12.8813 6.00079 12.4995C6.00079 11.9468 5.55304 11.499 5.00029 11.499C4.82929 11.499 4.66879 11.5418 4.52779 11.6175L4.53304 11.6145C2.99479 12.4268 2.00104 14.8448 1.99954 17.7743H2.00029ZM6.59179 7.88401C6.59029 7.85626 6.58954 7.82401 6.58954 7.79101C6.58954 6.92326 7.17829 6.19276 7.97779 5.97751L7.99054 5.97451C8.42779 5.86126 8.74579 5.47051 8.74579 5.00476C8.74579 4.45201 8.29804 4.00426 7.74529 4.00426C7.65829 4.00426 7.57354 4.01551 7.49329 4.03651L7.50004 4.03501C5.82079 4.46626 4.60054 5.96626 4.60054 7.75201C4.60054 7.98076 4.62079 8.20501 4.65904 8.42251L4.65529 8.39926C4.66579 8.44201 4.67629 8.47651 4.68904 8.51026L4.68679 8.50351C5.12479 9.45451 5.87704 10.1985 6.80629 10.617L6.83329 10.6275C6.96379 10.704 7.09579 10.7798 7.22479 10.8578C7.37329 10.95 7.55329 11.004 7.74529 11.004C8.10529 11.004 8.42029 10.8143 8.59579 10.5285L8.59804 10.524C8.69029 10.3755 8.74429 10.1955 8.74429 10.0035C8.74429 9.64426 8.55454 9.32851 8.26954 9.15301L8.26504 9.15076C8.12329 9.06376 7.97779 8.97976 7.83379 8.89576C7.32079 8.67751 6.89929 8.32951 6.59629 7.89301L6.59029 7.88326L6.59179 7.88401ZM6.00004 18.8333V21.5003C6.00004 22.0523 6.44779 22.5 6.99979 22.5C7.55179 22.5 7.99954 22.0523 7.99954 21.5003V18.8333C7.99954 16.5248 9.16729 14.5005 10.4993 14.5005H17.499C18.831 14.5005 19.9988 16.5248 19.9988 18.8333V21.5003C19.9988 22.0523 20.4465 22.5 20.9985 22.5C21.5505 22.5 21.9983 22.0523 21.9983 21.5003V18.8333C21.9983 15.2828 20.022 12.5003 17.4983 12.5003H10.4985C7.97479 12.5003 5.99854 15.2828 5.99854 18.8333H6.00004Z" fill="#A2A2A2"/>
<path d="M13.7702 10.0298C13.8467 10.0298 13.9225 10.0275 13.9997 10.0245C14.0987 10.032 14.2142 10.0365 14.3305 10.0365C15.5027 10.0365 16.57 9.58951 17.3717 8.85601L17.368 8.85901C17.9065 8.30926 18.2387 7.55551 18.2387 6.72376C18.2387 6.61351 18.2327 6.50476 18.2215 6.39751L18.223 6.41101C17.9935 4.24351 16.204 2.56051 14.0095 2.49976H14.0035H13.996C11.7775 2.56801 9.97896 4.27876 9.77196 6.45301L9.77046 6.47101C9.76296 6.55051 9.75846 6.64351 9.75846 6.73651C9.75846 7.56451 10.0915 8.31451 10.6307 8.86126C11.416 9.58726 12.4697 10.0328 13.6277 10.0328C13.678 10.0328 13.7282 10.032 13.7785 10.0305H13.771L13.7702 10.0298ZM13.996 4.50001H14.0035C15.1652 4.56601 16.099 5.45701 16.2325 6.59251L16.2332 6.60376C16.2385 6.64201 16.2415 6.68626 16.2415 6.73126C16.2415 7.01476 16.1275 7.27126 15.9437 7.45876C15.5027 7.82026 14.9327 8.03926 14.311 8.03926C14.2195 8.03926 14.1287 8.03476 14.0395 8.02501L14.0507 8.02576C14.0357 8.02501 14.0177 8.02426 13.9997 8.02426C13.9817 8.02426 13.9645 8.02501 13.9465 8.02576H13.9487C13.8722 8.03401 13.783 8.03851 13.693 8.03851C13.0705 8.03851 12.4982 7.81951 12.0505 7.45501L12.055 7.45876C11.8705 7.27651 11.7557 7.02301 11.7557 6.74326C11.7557 6.71476 11.7572 6.68701 11.7595 6.65926V6.66301C11.8735 5.49226 12.8162 4.57501 13.9877 4.50151H13.9945L13.996 4.50001ZM25.9997 17.7743V20.4998C25.9997 21.0518 25.552 21.4995 25 21.4995C24.448 21.4995 24.0002 21.0518 24.0002 20.4998V17.7743C23.9995 15.5108 23.254 13.764 22.5332 13.3845C22.213 13.2135 21.9992 12.8813 21.9992 12.4995C21.9992 11.9468 22.447 11.499 22.9997 11.499C23.1707 11.499 23.3312 11.5418 23.4722 11.6175L23.467 11.6145C25.0052 12.4268 25.999 14.8448 26.0005 17.7743H25.9997ZM21.4082 7.88401C21.4097 7.85626 21.4105 7.82401 21.4105 7.79101C21.4105 6.92326 20.8217 6.19276 20.0222 5.97751L20.0095 5.97451C19.5722 5.86126 19.2542 5.47051 19.2542 5.00476C19.2542 4.45201 19.702 4.00426 20.2547 4.00426C20.3417 4.00426 20.4265 4.01551 20.5067 4.03651L20.5 4.03501C22.1792 4.46626 23.3995 5.96626 23.3995 7.75201C23.3995 7.98076 23.3792 8.20501 23.341 8.42251L23.3447 8.39926C23.3342 8.44201 23.3237 8.47651 23.311 8.51026L23.3132 8.50351C22.8752 9.45451 22.123 10.1985 21.1937 10.617L21.1667 10.6275C21.0362 10.704 20.9042 10.7798 20.7752 10.8578C20.6267 10.95 20.4467 11.004 20.2547 11.004C19.8947 11.004 19.5797 10.8143 19.4042 10.5285L19.402 10.524C19.3097 10.3755 19.2557 10.1955 19.2557 10.0035C19.2557 9.64426 19.4455 9.32851 19.7305 9.15301L19.735 9.15076C19.8767 9.06376 20.0222 8.97976 20.1662 8.89576C20.6792 8.67751 21.1007 8.32951 21.4037 7.89301L21.4097 7.88326L21.4082 7.88401ZM22 18.8333V21.5003C22 22.0523 21.5522 22.5 21.0002 22.5C20.4482 22.5 20.0005 22.0523 20.0005 21.5003V18.8333C20.0005 16.5248 18.8327 14.5005 17.5007 14.5005H10.501C9.16896 14.5005 8.00121 16.5248 8.00121 18.8333V21.5003C8.00121 22.0523 7.55346 22.5 7.00146 22.5C6.44946 22.5 6.00171 22.0523 6.00171 21.5003V18.8333C6.00171 15.2828 7.97796 12.5003 10.5017 12.5003H17.5015C20.0252 12.5003 22.0015 15.2828 22.0015 18.8333H22Z" fill="#A2A2A2"/>
</svg>
