<svg width="20" height="21" viewBox="0 0 20 21" fill="none" xmlns="http://www.w3.org/2000/svg">
<path d="M7.77021 8.02976C7.84671 8.02976 7.92246 8.02751 7.99971 8.02451C8.09871 8.03201 8.21421 8.03651 8.33046 8.03651C9.50271 8.03651 10.57 7.58951 11.3717 6.85601L11.368 6.85901C11.9065 6.30926 12.2387 5.55551 12.2387 4.72376C12.2387 4.61351 12.2327 4.50476 12.2215 4.39751L12.223 4.41101C11.9935 2.24351 10.204 0.560506 8.00946 0.499756H8.00346H7.99596C5.77746 0.568006 3.97896 2.27876 3.77196 4.45301L3.77046 4.47101C3.76296 4.55051 3.75846 4.64351 3.75846 4.73651C3.75846 5.56451 4.09146 6.31451 4.63071 6.86126C5.41596 7.58726 6.46971 8.03276 7.62771 8.03276C7.67796 8.03276 7.72821 8.03201 7.77846 8.03051H7.77096L7.77021 8.02976ZM7.99596 2.50001H8.00346C9.16521 2.56601 10.099 3.45701 10.2325 4.59251L10.2332 4.60376C10.2385 4.64201 10.2415 4.68626 10.2415 4.73126C10.2415 5.01476 10.1275 5.27126 9.94371 5.45876C9.50271 5.82026 8.93271 6.03926 8.31096 6.03926C8.21946 6.03926 8.12871 6.03476 8.03946 6.02501L8.05071 6.02576C8.03571 6.02501 8.01771 6.02426 7.99971 6.02426C7.98171 6.02426 7.96446 6.02501 7.94646 6.02576H7.94871C7.87221 6.03401 7.78296 6.03851 7.69296 6.03851C7.07046 6.03851 6.49821 5.81951 6.05046 5.45501L6.05496 5.45876C5.87046 5.27651 5.75571 5.02301 5.75571 4.74326C5.75571 4.71476 5.75721 4.68701 5.75946 4.65926V4.66301C5.87346 3.49226 6.81621 2.57501 7.98771 2.50151H7.99446L7.99596 2.50001ZM19.9997 15.7743V18.4998C19.9997 19.0518 19.552 19.4995 19 19.4995C18.448 19.4995 18.0002 19.0518 18.0002 18.4998V15.7743C17.9995 13.5108 17.254 11.764 16.5332 11.3845C16.213 11.2135 15.9992 10.8813 15.9992 10.4995C15.9992 9.94676 16.447 9.49901 16.9997 9.49901C17.1707 9.49901 17.3312 9.54176 17.4722 9.61751L17.467 9.61451C19.0052 10.4268 19.999 12.8448 20.0005 15.7743H19.9997ZM15.4082 5.88401C15.4097 5.85626 15.4105 5.82401 15.4105 5.79101C15.4105 4.92326 14.8217 4.19276 14.0222 3.97751L14.0095 3.97451C13.5722 3.86126 13.2542 3.47051 13.2542 3.00476C13.2542 2.45201 13.702 2.00426 14.2547 2.00426C14.3417 2.00426 14.4265 2.01551 14.5067 2.03651L14.5 2.03501C16.1792 2.46626 17.3995 3.96626 17.3995 5.75201C17.3995 5.98076 17.3792 6.20501 17.341 6.42251L17.3447 6.39926C17.3342 6.44201 17.3237 6.47651 17.311 6.51026L17.3132 6.50351C16.8752 7.45451 16.123 8.19851 15.1937 8.61701L15.1667 8.62751C15.0362 8.70401 14.9042 8.77976 14.7752 8.85776C14.6267 8.95001 14.4467 9.00401 14.2547 9.00401C13.8947 9.00401 13.5797 8.81426 13.4042 8.52851L13.402 8.52401C13.3097 8.37551 13.2557 8.19551 13.2557 8.00351C13.2557 7.64426 13.4455 7.32851 13.7305 7.15301L13.735 7.15076C13.8767 7.06376 14.0222 6.97976 14.1662 6.89576C14.6792 6.67751 15.1007 6.32951 15.4037 5.89301L15.4097 5.88326L15.4082 5.88401ZM16 16.8333V19.5003C16 20.0523 15.5522 20.5 15.0002 20.5C14.4482 20.5 14.0005 20.0523 14.0005 19.5003V16.8333C14.0005 14.5248 12.8327 12.5005 11.5007 12.5005H4.50096C3.16896 12.5005 2.00121 14.5248 2.00121 16.8333V19.5003C2.00121 20.0523 1.55346 20.5 1.00146 20.5C0.449459 20.5 0.00170898 20.0523 0.00170898 19.5003V16.8333C0.00170898 13.2828 1.97796 10.5003 4.50171 10.5003H11.5015C14.0252 10.5003 16.0015 13.2828 16.0015 16.8333H16Z" fill="#A2A2A2"/>
</svg>
