<svg width="20" height="21" viewBox="0 0 20 21" fill="none" xmlns="http://www.w3.org/2000/svg">
<path d="M7.77026 8.02976C7.84676 8.02976 7.92251 8.02751 7.99976 8.02451C8.09876 8.03201 8.21426 8.03651 8.33051 8.03651C9.50276 8.03651 10.57 7.58951 11.3718 6.85601L11.368 6.85901C11.9065 6.30926 12.2388 5.55551 12.2388 4.72376C12.2388 4.61351 12.2328 4.50476 12.2215 4.39751L12.223 4.41101C11.9935 2.24351 10.204 0.560506 8.00951 0.499756H8.00351H7.99601C5.77751 0.568006 3.97901 2.27876 3.77201 4.45301L3.77051 4.47101C3.76301 4.55051 3.75851 4.64351 3.75851 4.73651C3.75851 5.56451 4.09151 6.31451 4.63076 6.86126C5.41601 7.58726 6.46976 8.03276 7.62776 8.03276C7.67801 8.03276 7.72826 8.03201 7.77851 8.03051H7.77101L7.77026 8.02976ZM7.99601 2.50001H8.00351C9.16526 2.56601 10.099 3.45701 10.2325 4.59251L10.2333 4.60376C10.2385 4.64201 10.2415 4.68626 10.2415 4.73126C10.2415 5.01476 10.1275 5.27126 9.94376 5.45876C9.50276 5.82026 8.93276 6.03926 8.31101 6.03926C8.21951 6.03926 8.12876 6.03476 8.03951 6.02501L8.05076 6.02576C8.03576 6.02501 8.01776 6.02426 7.99976 6.02426C7.98176 6.02426 7.96451 6.02501 7.94651 6.02576H7.94876C7.87226 6.03401 7.78301 6.03851 7.69301 6.03851C7.07051 6.03851 6.49826 5.81951 6.05051 5.45501L6.05501 5.45876C5.87051 5.27651 5.75576 5.02301 5.75576 4.74326C5.75576 4.71476 5.75726 4.68701 5.75951 4.65926V4.66301C5.87351 3.49226 6.81626 2.57501 7.98776 2.50151H7.99451L7.99601 2.50001ZM19.9998 15.7743V18.4998C19.9998 19.0518 19.552 19.4995 19 19.4995C18.448 19.4995 18.0003 19.0518 18.0003 18.4998V15.7743C17.9995 13.5108 17.254 11.764 16.5333 11.3845C16.213 11.2135 15.9993 10.8813 15.9993 10.4995C15.9993 9.94676 16.447 9.49901 16.9998 9.49901C17.1708 9.49901 17.3313 9.54176 17.4723 9.61751L17.467 9.61451C19.0053 10.4268 19.999 12.8448 20.0005 15.7743H19.9998ZM15.4083 5.88401C15.4098 5.85626 15.4105 5.82401 15.4105 5.79101C15.4105 4.92326 14.8218 4.19276 14.0223 3.97751L14.0095 3.97451C13.5723 3.86126 13.2543 3.47051 13.2543 3.00476C13.2543 2.45201 13.702 2.00426 14.2548 2.00426C14.3418 2.00426 14.4265 2.01551 14.5068 2.03651L14.5 2.03501C16.1793 2.46626 17.3995 3.96626 17.3995 5.75201C17.3995 5.98076 17.3793 6.20501 17.341 6.42251L17.3448 6.39926C17.3343 6.44201 17.3238 6.47651 17.311 6.51026L17.3133 6.50351C16.8753 7.45451 16.123 8.19851 15.1938 8.61701L15.1668 8.62751C15.0363 8.70401 14.9043 8.77976 14.7753 8.85776C14.6268 8.95001 14.4468 9.00401 14.2548 9.00401C13.8948 9.00401 13.5798 8.81426 13.4043 8.52851L13.402 8.52401C13.3098 8.37551 13.2558 8.19551 13.2558 8.00351C13.2558 7.64426 13.4455 7.32851 13.7305 7.15301L13.735 7.15076C13.8768 7.06376 14.0223 6.97976 14.1663 6.89576C14.6793 6.67751 15.1008 6.32951 15.4038 5.89301L15.4098 5.88326L15.4083 5.88401ZM16 16.8333V19.5003C16 20.0523 15.5523 20.5 15.0003 20.5C14.4483 20.5 14.0005 20.0523 14.0005 19.5003V16.8333C14.0005 14.5248 12.8328 12.5005 11.5008 12.5005H4.50101C3.16901 12.5005 2.00126 14.5248 2.00126 16.8333V19.5003C2.00126 20.0523 1.55351 20.5 1.00151 20.5C0.449512 20.5 0.00176239 20.0523 0.00176239 19.5003V16.8333C0.00176239 13.2828 1.97801 10.5003 4.50176 10.5003H11.5015C14.0253 10.5003 16.0015 13.2828 16.0015 16.8333H16Z" fill="url(#paint0_linear)"/>
<defs>
<linearGradient id="paint0_linear" x1="1.18687" y1="-21.4053" x2="39.0351" y2="-17.5561" gradientUnits="userSpaceOnUse">
<stop stop-color="#2042B8"/>
<stop offset="0.933726" stop-color="#FF6600"/>
</linearGradient>
</defs>
</svg>
