<svg width="16" height="21" viewBox="0 0 16 21" fill="none" xmlns="http://www.w3.org/2000/svg">
<path d="M14.9997 20.5C14.4477 20.5 14 20.0522 14 19.5002V16.8332C14 14.5247 12.8322 12.5005 11.5002 12.5005H4.50047C3.16847 12.5005 2.00072 14.5247 2.00072 16.8332V19.5002C2.00072 20.0522 1.55297 20.5 1.00097 20.5C0.448971 20.5 0.0012207 20.0522 0.0012207 19.5002V16.8332C0.0012207 13.2827 1.97747 10.5002 4.50122 10.5002H11.501C14.0247 10.5002 16.001 13.2827 16.001 16.8332V19.5002C16.001 20.0522 15.5532 20.5 15.0012 20.5H14.9997ZM11.369 6.85974C11.9075 6.30999 12.2397 5.55624 12.2397 4.72449C12.2397 4.61424 12.2337 4.50549 12.2225 4.39824L12.224 4.41174C11.9945 2.24424 10.205 0.561238 8.01047 0.500488H8.00447H7.99697C5.77847 0.568738 3.97997 2.27949 3.77297 4.45374L3.77147 4.47174C3.76397 4.55124 3.75947 4.64424 3.75947 4.73724C3.75947 5.56524 4.09247 6.31524 4.63172 6.86199C5.43197 7.59174 6.50147 8.03874 7.67522 8.03874C7.78997 8.03874 7.90397 8.03424 8.01647 8.02599L8.00147 8.02674C8.07872 8.02974 8.15447 8.03199 8.23172 8.03199C8.27372 8.03349 8.32397 8.03424 8.37347 8.03424C9.53147 8.03424 10.586 7.58874 11.3735 6.85899L11.3705 6.86199L11.369 6.85974ZM7.94897 6.02499C7.87172 6.03324 7.78172 6.03774 7.69097 6.03774C7.06922 6.03774 6.49847 5.81874 6.05222 5.45349L6.05672 5.45724C5.87222 5.27499 5.75747 5.02149 5.75747 4.74174C5.75747 4.71324 5.75897 4.68549 5.76122 4.65774V4.66149C5.87522 3.49074 6.81797 2.57349 7.98947 2.49999H7.99622H8.00372C9.16547 2.56599 10.0992 3.45699 10.2327 4.59249L10.2335 4.60374C10.2387 4.64199 10.2417 4.68624 10.2417 4.73124C10.2417 5.01474 10.1277 5.27124 9.94397 5.45874C9.50147 5.82024 8.93072 6.03924 8.30822 6.03924C8.21747 6.03924 8.12822 6.03474 8.04047 6.02574L8.05172 6.02649C8.03522 6.02574 8.01722 6.02574 8.00072 6.02574C7.98422 6.02574 7.96622 6.02574 7.94972 6.02649L7.94897 6.02499Z" fill="url(#paint0_linear)"/>
<defs>
<linearGradient id="paint0_linear" x1="0.949354" y1="-21.4037" x2="31.3413" y2="-18.9308" gradientUnits="userSpaceOnUse">
<stop stop-color="#2042B8"/>
<stop offset="0.933726" stop-color="#FF6600"/>
</linearGradient>
</defs>
</svg>
