<svg width="12" height="12" viewBox="0 0 12 12" fill="none" xmlns="http://www.w3.org/2000/svg">
<path d="M5.92515 0.686523C2.87982 0.686523 0.411377 3.15538 0.411377 6.2003C0.411377 9.24522 2.88023 11.7141 5.92515 11.7141C8.97049 11.7141 11.4389 9.24522 11.4389 6.2003C11.4352 3.15662 8.96884 0.689832 5.92557 0.686523H5.92515ZM5.92515 10.6116C3.48897 10.6116 1.51388 8.63649 1.51388 6.2003C1.51388 3.76412 3.48897 1.78903 5.92515 1.78903C8.36134 1.78903 10.3364 3.76412 10.3364 6.2003C10.3335 8.63525 8.36051 10.6087 5.92557 10.6116H5.92515ZM8.68225 6.20071C8.68225 6.50508 8.43536 6.75197 8.131 6.75197H6.47682V8.40614C6.47682 8.71051 6.22994 8.9574 5.92557 8.9574C5.6212 8.9574 5.37431 8.71051 5.37431 8.40614V6.75197H3.72014C3.41577 6.75197 3.16889 6.50508 3.16889 6.20071C3.16889 5.89635 3.41577 5.64946 3.72014 5.64946H5.37431V3.99529C5.37431 3.69092 5.6212 3.44403 5.92557 3.44403C6.22994 3.44403 6.47682 3.69092 6.47682 3.99529V5.64946H8.131C8.43536 5.64946 8.68225 5.89635 8.68225 6.20071Z" fill="white"/>
</svg>
