<svg width="9" height="9" viewBox="0 0 9 9" fill="none" xmlns="http://www.w3.org/2000/svg">
<path d="M8.44363 7.96653L6.88818 6.41108C7.40814 5.76501 7.72247 4.93484 7.72247 4.03085C7.72247 1.92566 6.01588 0.21875 3.91037 0.21875C1.80486 0.21875 0.0982666 1.92534 0.0982666 4.03085C0.0982666 6.13604 1.80486 7.84295 3.91037 7.84295C4.81404 7.84295 5.64452 7.52831 6.29788 7.00296L6.29059 7.00867L7.84604 8.56412C7.92209 8.63763 8.02538 8.68262 8.13945 8.68262C8.37266 8.68262 8.56182 8.49346 8.56182 8.26025C8.56182 8.14618 8.51651 8.04257 8.443 7.96653H8.44363ZM0.962651 4.04036C0.962651 4.03941 0.962651 4.03877 0.962651 4.03782C0.962651 2.40443 2.28679 1.0806 3.91987 1.0806C5.55295 1.0806 6.87709 2.40474 6.87709 4.03782C6.87709 4.85119 6.54851 5.58788 6.01715 6.12274C6.01429 6.12527 6.01049 6.12622 6.00796 6.12907C6.00542 6.13193 6.00447 6.13573 6.00162 6.13826C5.4674 6.66963 4.73102 6.99789 3.91765 6.99789C2.28553 6.99789 0.962334 5.6747 0.962334 4.04257C0.962334 4.04194 0.962334 4.04131 0.962334 4.04067L0.962651 4.04036Z" fill="#939393"/>
</svg>
