<svg width="55" height="19" viewBox="0 0 55 19" fill="none" xmlns="http://www.w3.org/2000/svg">
<path d="M17.4856 10.4411H22.1153V11.4946H18.6755V13.7486H21.6827V14.8133H18.6755V17.9962H17.4856V10.4411Z" fill="#303030"/>
<path d="M23.4 10.3279H24.6115V11.4039H23.4V10.3279ZM23.4324 12.3441H24.5682L24.579 17.9962H23.4324V12.3441Z" fill="#303030"/>
<path d="M26.2099 12.7745C26.5344 12.6008 26.9274 12.4611 27.389 12.3554C27.8577 12.2421 28.3048 12.1855 28.7303 12.1855C29.4875 12.1855 30.0464 12.3516 30.407 12.6839C30.7675 13.0161 30.9478 13.5334 30.9478 14.2357V17.9962H29.812V14.3942C29.812 13.6014 29.3829 13.2049 28.5248 13.2049C28.1137 13.2049 27.7207 13.2766 27.3457 13.4201V17.9962H26.2099V12.7745Z" fill="#303030"/>
<path d="M34.8954 12.1855C35.4868 12.1855 35.988 12.3365 36.399 12.6386C36.8173 12.9331 37.0228 13.4126 37.0156 14.0771V16.7955C37.0156 17.309 36.7992 17.6677 36.3666 17.8716C35.9339 18.0679 35.3173 18.1661 34.5168 18.1661C33.875 18.1661 33.345 18.0264 32.9267 17.747C32.5084 17.4676 32.2993 16.9994 32.2993 16.3425C32.2993 15.7233 32.4688 15.2589 32.8077 14.9493C33.1539 14.6397 33.6406 14.4849 34.268 14.4849C34.917 14.4849 35.4579 14.6208 35.8906 14.8926V14.3489C35.8906 13.5787 35.4471 13.1936 34.5601 13.1936C34.2428 13.1936 33.9255 13.2464 33.6082 13.3522C33.2909 13.4503 33.0277 13.59 32.8185 13.7713V12.6612C33.0204 12.5253 33.3125 12.412 33.6947 12.3214C34.0841 12.2308 34.4844 12.1855 34.8954 12.1855ZM34.6466 17.2373C35.1009 17.2373 35.4219 17.2033 35.6093 17.1353C35.7968 17.0674 35.8906 16.9315 35.8906 16.7276V15.6289C35.5228 15.4627 35.119 15.3797 34.6791 15.3797C34.268 15.3797 33.9543 15.4552 33.738 15.6062C33.5288 15.7572 33.4243 15.9838 33.4243 16.2858C33.4243 16.603 33.5433 16.8408 33.7812 16.9994C34.0264 17.158 34.3149 17.2373 34.6466 17.2373Z" fill="#303030"/>
<path d="M38.6222 12.7745C38.9467 12.6008 39.3397 12.4611 39.8013 12.3554C40.27 12.2421 40.7171 12.1855 41.1426 12.1855C41.8998 12.1855 42.4587 12.3516 42.8193 12.6839C43.1798 13.0161 43.3601 13.5334 43.3601 14.2357V17.9962H42.2243V14.3942C42.2243 13.6014 41.7952 13.2049 40.9371 13.2049C40.526 13.2049 40.133 13.2766 39.758 13.4201V17.9962H38.6222V12.7745Z" fill="#303030"/>
<path d="M47.351 18.1095C46.5866 18.1095 45.9483 17.8791 45.4363 17.4185C44.9315 16.9579 44.6791 16.2141 44.6791 15.1871C44.6791 14.1299 44.9279 13.3673 45.4255 12.8991C45.9303 12.4234 46.5685 12.1855 47.3402 12.1855C47.9243 12.1855 48.4796 12.2988 49.006 12.5253V13.59C48.4579 13.3484 47.9567 13.2276 47.5024 13.2276C46.9327 13.2276 46.5072 13.3786 46.226 13.6806C45.9447 13.9751 45.8041 14.4471 45.8041 15.0965C45.8041 15.7761 45.9411 16.2745 46.2152 16.5917C46.4892 16.9013 46.9291 17.0561 47.5349 17.0561C48.0252 17.0561 48.5192 16.9315 49.0168 16.6823V17.747C48.4976 17.9886 47.9423 18.1095 47.351 18.1095Z" fill="#303030"/>
<path d="M52.5659 12.1742C53.4096 12.1742 54.0262 12.4611 54.4156 13.035C54.8122 13.6014 55.0069 14.398 54.9997 15.425H51.1921C51.2281 15.9838 51.3832 16.4104 51.6572 16.7049C51.9385 16.9919 52.3351 17.1353 52.8471 17.1353C53.1788 17.1353 53.4961 17.0938 53.799 17.0108C54.1019 16.9201 54.3687 16.8069 54.5995 16.6709V17.781C54.037 18.0377 53.3916 18.1661 52.6632 18.1661C51.8483 18.1661 51.2065 17.9094 50.7378 17.3959C50.2762 16.8748 50.0455 16.1386 50.0455 15.1871C50.0455 14.213 50.2654 13.4692 50.7053 12.9557C51.1452 12.4347 51.7654 12.1742 52.5659 12.1742ZM52.5334 13.1483C52.1512 13.1483 51.8519 13.254 51.6356 13.4654C51.4192 13.6769 51.2786 14.0356 51.2137 14.5415H53.8423C53.7918 14.0582 53.662 13.7071 53.4529 13.4881C53.2437 13.2615 52.9373 13.1483 52.5334 13.1483Z" fill="#303030"/>
<path d="M12.0047 0C13.1061 0 13.9989 0.934894 13.9989 2.08814V16.2875C13.9989 17.4408 13.1061 18.3757 12.0047 18.3757C10.9034 18.3757 10.0105 17.4408 10.0105 16.2875V2.08814C10.0105 0.934893 10.9034 0 12.0047 0Z" fill="url(#paint0_linear)"/>
<path d="M6.60065 5.84682C7.60279 5.84682 8.41519 6.6975 8.41519 7.74686V12.8137C8.41519 13.863 7.60279 14.7137 6.60065 14.7137C5.5985 14.7137 4.7861 13.863 4.7861 12.8137V7.74686C4.7861 6.6975 5.5985 5.84682 6.60065 5.84682Z" fill="url(#paint1_linear)"/>
<path d="M3.62908 5.24109C3.62908 4.19172 2.81669 3.34104 1.81454 3.34104C0.812399 3.34104 0 4.19172 0 5.24109V5.87444C0 6.9238 0.812399 7.77449 1.81454 7.77449C2.81669 7.77449 3.62908 6.92381 3.62908 5.87444V5.24109Z" fill="url(#paint2_linear)"/>
<path d="M6.60065 0.835269C7.60279 0.835269 8.41519 1.68595 8.41519 2.73532V3.36866C8.41519 4.41803 7.60279 5.26871 6.60065 5.26871C5.5985 5.26871 4.7861 4.41803 4.7861 3.36866V2.73531C4.7861 1.68595 5.5985 0.835269 6.60065 0.835269Z" fill="url(#paint3_linear)"/>
<path d="M21.7826 8.32194L20.3209 6.07915L19.0216 8.32194H17.2451L19.4885 4.793L17.1639 1.23218H19.2043L20.6762 3.4856L21.9349 1.23218H23.7519L21.5289 4.793L23.823 8.32194H21.7826Z" fill="url(#paint4_linear)"/>
<path d="M24.6524 1.23218H29.2914V2.56084H26.2969V4.1021H28.8956V5.44139H26.2969V6.99327H29.2914V8.32194H24.6524V1.23218Z" fill="url(#paint5_linear)"/>
<path d="M36.5776 1.23218V8.32194H35.3391L32.1822 4.00643V8.32194H30.6697V1.23218H32.0705L35.0651 5.45202V1.23218H36.5776Z" fill="url(#paint6_linear)"/>
<path d="M38.0153 1.23218H40.7357C41.8726 1.23218 42.7152 1.5298 43.2633 2.12504C43.8115 2.7132 44.0856 3.59897 44.0856 4.78237C44.0856 5.95868 43.8115 6.84446 43.2633 7.4397C42.7152 8.02786 41.8726 8.32194 40.7357 8.32194H38.0153V1.23218ZM40.5429 6.99327C41.1587 6.99327 41.6223 6.81257 41.9336 6.45118C42.2448 6.08978 42.4005 5.53351 42.4005 4.78237C42.4005 4.01706 42.2448 3.45725 41.9336 3.10294C41.6223 2.74154 41.1587 2.56084 40.5429 2.56084H39.6597V6.99327H40.5429Z" fill="url(#paint7_linear)"/>
<defs>
<linearGradient id="paint0_linear" x1="15.2522" y1="12.856" x2="-0.433992" y2="2.7098" gradientUnits="userSpaceOnUse">
<stop stop-color="#2042B8"/>
<stop offset="0.933726" stop-color="#FF6600"/>
</linearGradient>
<linearGradient id="paint1_linear" x1="15.2522" y1="12.856" x2="-0.433992" y2="2.7098" gradientUnits="userSpaceOnUse">
<stop stop-color="#2042B8"/>
<stop offset="0.933726" stop-color="#FF6600"/>
</linearGradient>
<linearGradient id="paint2_linear" x1="15.2522" y1="12.856" x2="-0.433992" y2="2.7098" gradientUnits="userSpaceOnUse">
<stop stop-color="#2042B8"/>
<stop offset="0.933726" stop-color="#FF6600"/>
</linearGradient>
<linearGradient id="paint3_linear" x1="15.2522" y1="12.856" x2="-0.433992" y2="2.7098" gradientUnits="userSpaceOnUse">
<stop stop-color="#2042B8"/>
<stop offset="0.933726" stop-color="#FF6600"/>
</linearGradient>
<linearGradient id="paint4_linear" x1="27.2607" y1="1.24596" x2="55.2106" y2="29.1833" gradientUnits="userSpaceOnUse">
<stop stop-color="#2042B8"/>
<stop offset="0.54856" stop-color="#FF6600"/>
</linearGradient>
<linearGradient id="paint5_linear" x1="27.2607" y1="1.24596" x2="55.2106" y2="29.1833" gradientUnits="userSpaceOnUse">
<stop stop-color="#2042B8"/>
<stop offset="0.54856" stop-color="#FF6600"/>
</linearGradient>
<linearGradient id="paint6_linear" x1="27.2607" y1="1.24596" x2="55.2106" y2="29.1833" gradientUnits="userSpaceOnUse">
<stop stop-color="#2042B8"/>
<stop offset="0.54856" stop-color="#FF6600"/>
</linearGradient>
<linearGradient id="paint7_linear" x1="27.2607" y1="1.24596" x2="55.2106" y2="29.1833" gradientUnits="userSpaceOnUse">
<stop stop-color="#2042B8"/>
<stop offset="0.54856" stop-color="#FF6600"/>
</linearGradient>
</defs>
</svg>
